# xmcd
#
# Track frame offsets:
#	150
#	14603
#	31122
#	47626
#	64450
#	79490
#	95932
#	113958
#	128673
#	146663
#	165164
#	183928
#	201129
#	220658
#
# Disc length: 3185 seconds
#
# Revision: 0
# Processed by: cddbd v1.5.2PL0 Copyright (c) Steve Scherf et al.
# Submitted via: SynApp - FreeCDDB Version: 2.4
#
DISCID=c60c6f0e
DTITLE=diverses - Sweet, Soft and Sexy CD 2
DYEAR=2007
DGENRE=Other
TTITLE0=Harold Melvin and The Blue Notes - If you don´t know me by now
TTITLE1=The Blue Notes - If You Don't Know Me By Now
TTITLE2=David A. Stewart - Lily Was Here
TTITLE3=Milli Vaniilli - Dreams To Remember
TTITLE4=Black Box - Ride On Time
TTITLE5=Pointer Sisters - Fire
TTITLE6=Glen Goldsmith - Dreaming
TTITLE7=Lil Louis - French Kiss
TTITLE8=Aretha Franklin - Whole Lot Of Me
TTITLE9=Rah Band - Clouds Across The Moon
TTITLE10=Lisa Stansfield - Poison
TTITLE11=The Temptations - Soul To Soul
TTITLE12=Smokey Robinson - Everything You Touch
TTITLE13=Laid Back - Bakerman
EXTD=
EXTT0=
EXTT1=
EXTT2=
EXTT3=
EXTT4=
EXTT5=
EXTT6=
EXTT7=
EXTT8=
EXTT9=
EXTT10=
EXTT11=
EXTT12=
EXTT13=
PLAYORDER=
